# xmcd
#
# Track frame offsets:
#	150
#	14675
#	27658
#	39392
#	55638
#	68194
#	82057
#	96198
#	107663
#	120613
#	133190
#	143170
#	156130
#	169642
#	188221
#	207425
#	219547
#	231281
#
# Disc length: 3222
#
# Revision: 2
# Processed by: cddbd v1.5.1PL0 Copyright (c) Steve Scherf et al.
# Submitted via: CDex 1.51
# Normalized: r1:TDELIM( - )
#
DISCID=060c9412
DTITLE=Various Artist - Simply The Best Country
DYEAR=2003
DGENRE=Country
TTITLE0=Glenn Campbell - Rhinestone Cowboy
TTITLE1=Ray Stevens - Misty
TTITLE2=Jerry Wallace - If You Leave Me Tonight
TTITLE3=Billie Jo Spears - Blanket On The Ground
TTITLE4=Jim Reeves - Bimbo
TTITLE5=Willie Nelson - Funny How Time Slips
TTITLE6=Don Williams - Desperately
TTITLE7=Crystal Gayle - Don't It Make My Brown Eyes Blue
TTITLE8=Bobbie Gentry - I'll Never Fall In Love Again
TTITLE9=Jerry Wallace - In The Misty Moonlight
TTITLE10=Merle Haggard - Mama Tried
TTITLE11=Dr. Hook - Sharing The Night Together
TTITLE12=Kenny Rogers - I Will Allways Love You
TTITLE13=Juice Newton - Angel Of The Morning
TTITLE14=Bobbie Gentry - Ode To Billie Joe
TTITLE15=Jim Reeves - Mexican Joe
TTITLE16=Patsy Cline - A Poor Man's Roses
TTITLE17=he Everly Brothers - All I Have To Do Is Dream
EXTD=YEAR: 2003
EXTT0=
EXTT1=
EXTT2=
EXTT3=
EXTT4=
EXTT5=
EXTT6=
EXTT7=
EXTT8=
EXTT9=
EXTT10=
EXTT11=
EXTT12=
EXTT13=
EXTT14=
EXTT15=
EXTT16=
EXTT17=
PLAYORDER=
